<svg width="23" height="27" viewBox="-5 0 33 27" fill="none" xmlns="http://www.w3.org/2000/svg">
<path d="M20.1446 5.19903C20.1265 5.06268 20.0116 4.98703 19.9161 4.9788C19.8214 4.97056 17.966 4.94136 17.966 4.94136C17.966 4.94136 16.4143 3.38029 16.261 3.22148C16.1078 3.06268 15.8084 3.11062 15.692 3.14658C15.6906 3.14733 15.4006 3.24021 14.9125 3.39677C14.8308 3.12261 14.7108 2.78552 14.5394 2.44694C13.987 1.3548 13.1779 0.777263 12.2003 0.775768C12.1988 0.775768 12.1981 0.775768 12.1967 0.775768C12.1287 0.775768 12.0615 0.78251 11.9935 0.788499C11.9646 0.752544 11.9357 0.717341 11.9053 0.68288C11.4794 0.210967 10.9335 -0.0189981 10.2791 0.00122675C9.01664 0.0386803 7.75925 0.983259 6.73972 2.66118C6.02243 3.84171 5.4765 5.32489 5.32178 6.47321C3.87202 6.93837 2.85828 7.26345 2.83587 7.27096C2.10412 7.50915 2.08099 7.53237 1.98554 8.24701C1.91468 8.78706 0 24.1251 0 24.1251L16.0456 27L23 25.209C23 25.209 20.1627 5.33538 20.1446 5.19903ZM14.1092 3.65445C13.7397 3.7728 13.3196 3.90763 12.8641 4.0537C12.8547 3.39152 12.7787 2.47017 12.4808 1.6739C13.4389 1.86192 13.9103 2.98478 14.1092 3.65445ZM12.0246 4.32337C11.1837 4.59301 10.2661 4.8874 9.34564 5.18256C9.60448 4.15557 10.0955 3.13309 10.6985 2.46267C10.9226 2.21323 11.2364 1.93533 11.6081 1.77652C11.9573 2.53159 12.0333 3.60051 12.0246 4.32337ZM10.3044 0.871646C10.6009 0.864904 10.8503 0.932323 11.0636 1.07764C10.7224 1.26117 10.3926 1.52484 10.0832 1.86866C9.28126 2.76006 8.66666 4.14359 8.42154 5.47844C7.65726 5.72337 6.9096 5.96385 6.22125 6.18408C6.65584 4.08292 8.35573 0.930073 10.3044 0.871646Z" fill="#95BF47"/>
<path d="M20.3393 5.79143C20.2576 5.78349 18.6569 5.75536 18.6569 5.75536C18.6569 5.75536 17.3182 4.25179 17.1859 4.09884C17.1366 4.04184 17.0699 4.01226 17 4L17.0006 27L23 25.2757C23 25.2757 20.5521 6.13487 20.5365 6.00354C20.5209 5.87222 20.4211 5.79936 20.3393 5.79143Z" fill="#5E8E3E"/>
<path d="M12 8.28513L11.2859 11.4327C11.2859 11.4327 10.4893 11.0057 9.54501 11.0757C8.16019 11.1789 8.14548 12.2078 8.15958 12.4662C8.23501 13.8739 11.3786 14.1812 11.5551 17.4787C11.6938 20.0728 10.387 21.8473 8.50417 21.9874C6.24413 22.1554 5 20.585 5 20.585L5.47887 18.1853C5.47887 18.1853 6.73129 19.2985 7.73376 19.2239C8.38845 19.175 8.62243 18.5476 8.59877 18.1039C8.50033 16.2676 5.94044 16.376 5.77871 13.3587C5.64252 10.8197 7.05802 8.24672 10.1811 8.01473C11.3843 7.9236 12 8.28513 12 8.28513Z" fill="white"/>
</svg>
